<svg width="150.46896362304688px" height="119.020654296875px" xmlns="http://www.w3.org/2000/svg" viewBox="174.76551818847656 15.489672851562503 150.46896362304688 119.020654296875" style="background: none;" preserveAspectRatio="xMidYMid"><defs><linearGradient id="editing-gradient-gradient" x1="0" x2="1" y1="0.5" y2="0.5" gradientUnits="objectBoundingBox"><stop offset="0" stop-color="#008dff"></stop><stop offset="1" stop-color="#68dec4"></stop></linearGradient></defs><g><g transform="translate(202.57500261068344, 98.04000091552734)"><path d="M0.58-5.76L0.58-5.76L0.58-5.76Q0.58-7.62 1.66-10.08L1.66-10.08L1.66-10.08Q2.75-12.54 4.03-13.44L4.03-13.44L4.03-13.44Q6.46-11.65 8.96-11.65L8.96-11.65L10.94-11.97L10.94-11.97Q14.40-12.99 14.53-17.47L14.53-17.47L14.53-33.79L9.41-33.79L9.41-33.79Q8.32-33.79 7.87-36.54L7.87-36.54L7.87-36.54Q7.68-37.89 7.68-39.30L7.68-39.30L7.68-39.30Q7.68-40.70 7.87-42.05L7.87-42.05L7.87-42.05Q8.32-44.80 9.41-44.80L9.41-44.80L24.64-44.80L24.64-44.80Q25.92-44.80 26.56-44.06L26.56-44.06L26.56-44.06Q27.20-43.33 27.20-42.30L27.20-42.30L27.20-12.10L27.20-12.10Q27.20-5.82 23.01-2.56L23.01-2.56L23.01-2.56Q18.82 0.70 12.96 0.70L12.96 0.70L12.96 0.70Q7.10 0.70 3.84-1.02L3.84-1.02L3.84-1.02Q0.58-2.75 0.58-5.76ZM36.48-23.23L36.48-23.23L36.48-23.23Q34.69-26.43 34.69-28.45L34.69-28.45L34.69-28.45Q34.69-30.46 35.78-31.04L35.78-31.04L35.78-31.04Q39.42-32.64 45.79-32.64L45.79-32.64L45.79-32.64Q52.16-32.64 54.78-29.66L54.78-29.66L54.78-29.66Q57.41-26.69 57.41-20.86L57.41-20.86L57.41-10.75L59.58-10.75L59.58-10.75Q60.67-10.75 61.28-9.47L61.28-9.47L61.28-9.47Q61.89-8.19 61.89-5.95L61.89-5.95L61.89-5.95Q61.89-3.71 60.77-1.54L60.77-1.54L60.77-1.54Q59.65 0.64 57.73 0.64L57.73 0.64L57.73 0.64Q54.27 0.64 52.16-1.22L52.16-1.22L52.16-1.22Q51.20-1.98 50.69-3.07L50.69-3.07L50.69-3.07Q47.74 0.64 41.54 0.64L41.54 0.64L41.54 0.64Q36.86 0.64 33.66-2.69L33.66-2.69L33.66-2.69Q30.46-6.02 30.46-10.56L30.46-10.56L30.46-10.56Q30.46-20.99 42.94-20.99L42.94-20.99L46.46-20.99L46.46-21.63L46.46-21.63Q46.46-23.30 45.92-23.78L45.92-23.78L45.92-23.78Q45.38-24.26 43.39-24.26L43.39-24.26L43.39-24.26Q40.96-24.26 36.48-23.23ZM41.60-11.46L41.60-11.46L41.60-11.46Q41.60-10.05 42.37-9.31L42.37-9.31L42.37-9.31Q43.14-8.58 44.32-8.58L44.32-8.58L44.32-8.58Q45.50-8.58 46.46-9.54L46.46-9.54L46.46-14.46L44.67-14.46L44.67-14.46Q41.60-14.46 41.60-11.46ZM65.86-2.75L65.86-44.61L65.86-44.61Q65.86-45.38 71.39-45.38L71.39-45.38L71.39-45.38Q76.93-45.38 76.93-44.54L76.93-44.54L76.93-32.13L76.93-32.13Q79.68-32.64 80.83-32.64L80.83-32.64L80.83-32.64Q94.27-32.64 94.27-17.22L94.27-17.22L94.27-17.22Q94.27-8.64 90.14-4L90.14-4L90.14-4Q86.02 0.64 78.43 0.64L78.43 0.64L78.43 0.64Q70.85 0.64 65.86-2.75L65.86-2.75ZM79.04-22.66L79.04-22.66L79.04-22.66Q77.95-22.66 76.93-21.95L76.93-21.95L76.93-9.73L76.93-9.73Q77.82-9.34 78.82-9.34L78.82-9.34L78.82-9.34Q79.81-9.34 80.83-10.11L80.83-10.11L80.83-10.11Q82.62-11.39 82.62-16.06L82.62-16.06L82.62-16.06Q82.62-22.66 79.04-22.66Z" fill="url(#editing-gradient-gradient)"></path></g></g><style>text {
  font-size: 64px;
  font-family: Arial Black;
  dominant-baseline: central;
  text-anchor: middle;
}</style></svg>